PathFileType	4	(X/Y/Z)	C:/Users/beibeiliu/ov580/test_trc/User2\sequence.18_training_dense_right.trc
DataRate	CameraRate	NumFrames	NumMarkers	Units	OrigDataRate	OrigDataStartFrame	OrigNumFrames
120	120	8	19	mm	120	1	429
Frame#	Time	ThumbCMC			ThumbMCP			ThumbIP			ThumbTip			IndexMCP			IndexPIP			IndexTip			MiddleMCP			MiddlePIP			MiddleTip			RingMCP			RingPIP			RingTip			PinkyMCP			PinkyPIP			PinkyTip			BackHand1			BackHand2			BackHand3	
		X0	Y0	Z0	X1	Y1	Z1	X2	Y2	Z2	X3	Y3	Z3	X4	Y4	Z4	X5	Y5	Z5	X6	Y6	Z6	X7	Y7	Z7	X8	Y8	Z8	X9	Y9	Z9	X10	Y10	Z10	X11	Y11	Z11	X12	Y12	Z12	X13	Y13	Z13	X14	Y14	Z14	X15	Y15	Z15	X16	Y16	Z16	X17	Y17	Z17	X18	Y18	Z18	
0	0	34.814	-7.74663	44.6883	4.41401	-6.83347	27.7072	-17.6607	-10.4575	0.485591	-33.559	-15.3265	-16.099	31.1809	-2.51044	-40.9803	20.6581	-7.32024	-69.3394	10.871	-8.47418	-91.1193	60.9983	-4.77091	-53.3421	53.1542	-9.38013	-82.9536	52.7044	-15.1887	-115.092	84.1144	-16.1769	-51.1914	84.82	-21.0394	-77.7636	86.9684	-24.7328	-106.825	105.506	-29.5808	-36.5705	113.686	-36.6435	-59.9895	122.165	-39.1268	-80.201	90.8817	-2.59298	3.77103	97.3649	7.03728	36.6048	60.9274	10.2077	25.7964	
1	0.00833333	32.1012	-7.30244	41.1212	8.83911	-8.89659	28.5613	-15.7845	-10.2941	-0.465551	-35.5426	-14.5399	-12.3233	30.9073	-3.61349	-39.9694	18.7607	-6.13865	-67.5469	13.6132	-10.6688	-94.8102	56.9825	-4.94076	-50.9969	51.2111	-10.5252	-85.9957	51.133	-15.9494	-116.112	81.2882	-15.8701	-52.6408	88.5297	-22.3324	-74.0559	84.9632	-24.8724	-105.71	104.15	-30.1476	-35.2392	113.448	-36.8395	-60.5985	117.864	-39.2618	-84.2087	90.1899	-3.53734	4.63519	97.2595	5.42438	36.8432	59.6986	10.6703	23.532	
2	0.0166667	32.2937	-7.32899	46.6359	9.22073	-9.10771	26.0489	-16.6447	-9.71167	0.84734	-32.5071	-14.1071	-14.6156	31.43	-3.597	-40.3202	19.1669	-6.12414	-63.6871	15.1888	-10.8166	-91.7925	56.2436	-5.56488	-55.94	50.9367	-10.6608	-85.314	51.0303	-16.9962	-117.277	84.2733	-16.5887	-51.2248	84.5129	-21.7366	-73.9592	85.4711	-26.1633	-104.417	104.643	-29.0846	-36.754	112.692	-37.8622	-58.127	117.659	-39.0642	-80.181	91.1226	-3.6391	3.38573	100.137	5.35986	33.5019	62.3487	10.7786	24.6765	
3	0.025	31.0852	-6.77958	43.8152	7.43602	-8.14805	29.031	-15.8689	-9.53246	-0.81615	-34.6659	-13.9691	-15.1842	29.9197	-2.85804	-38.1097	18.3329	-6.65777	-67.957	15.7596	-11.2804	-93.7812	60.697	-5.88506	-54.5013	54.8164	-11.6796	-86.9495	53.6415	-18.2303	-115.729	83.0458	-15.286	-53.0147	86.1648	-21.3883	-78.1494	84.2632	-26.3709	-105.228	104.699	-29.1255	-35.5574	111.432	-37.4079	-56.4708	120.129	-39.685	-83.7166	88.8001	-1.30777	3.49179	99.0469	3.91	36.6291	58.0187	10.1192	21.9415	
4	0.0333333	29.8966	-5.11849	42.2855	8.17055	-7.80612	27.3936	-16.3039	-8.93901	0.418496	-33.9234	-14.1342	-17.0356	30.7509	-2.44779	-42.5917	19.1141	-5.05265	-65.3409	16.2415	-11.238	-93.3722	56.8126	-3.99508	-50.809	52.6885	-11.2257	-86.7638	50.8982	-16.0985	-114.107	82.5381	-15.5631	-48.1558	83.2018	-20.972	-78.9319	84.5318	-25.2468	-106.99	105.907	-29.8532	-32.8915	113.041	-36.6437	-61.1181	120.181	-40.9165	-84.104	89.8546	-1.74811	6.40058	101.893	5.68448	35.5754	63.8502	9.85948	24.3711	
5	0.0416667	30.1732	-5.79245	40.919	9.74251	-8.74605	26.1353	-14.1326	-10.9651	3.84508	-32.1288	-15.0092	-14.397	28.2579	-2.6975	-40.5198	22.5743	-6.63556	-68.7553	9.89505	-9.71178	-95.022	59.2729	-4.9153	-51.6371	55.8765	-10.8576	-83.7977	50.8123	-16.1411	-112.378	81.6099	-15.2811	-51.7594	86.6036	-20.9367	-75.8099	82.4755	-25.85	-103.053	107.619	-30.1988	-36.294	110.711	-36.2391	-57.8665	122.248	-39.6325	-84.7007	93.3964	-3.68368	2.99405	98.5369	4.73168	33.2966	62.7982	9.60325	20.4006	
6	0.05	32.2657	-7.29246	41.5626	6.75114	-6.93566	28.1848	-18.4967	-8.44078	1.79197	-35.6297	-14.1388	-12.6144	29.1549	-3.29799	-40.9443	17.1898	-6.00684	-67.5402	15.0355	-10.8262	-94.5524	56.0999	-4.27126	-52.3698	53.0341	-11.0495	-83.3667	50.6825	-17.0453	-114.261	85.4602	-15.8891	-51.6799	87.271	-21.6738	-75.9198	85.749	-26.4246	-103.039	104.305	-29.6277	-33.9101	114.344	-38.225	-59.5301	121.388	-40.4901	-85.1769	90.3524	-1.54422	6.17306	96.5074	5.16383	35.965	60.425	9.40036	21.6988	
7	0.0583333	31.8071	-7.3043	46.3049	7.11635	-7.31449	28.0223	-17.0582	-9.21999	2.863	-35.6395	-13.0363	-13.7519	27.0022	-2.50109	-40.6041	19.5306	-7.70883	-69.5292	11.9939	-10.2316	-96.13	57.4838	-5.69507	-54.0946	52.6487	-11.566	-84.7948	52.4743	-18.2737	-118.535	85.6336	-17.2891	-52.1432	88.0095	-22.4819	-77.0129	82.9583	-25.403	-102.834	104.366	-29.4523	-32.6574	110.418	-36.9933	-56.5269	121.336	-38.7305	-81.7715	88.9614	-0.834666	1.9226	97.648	6.08546	37.5146	58.8062	10.8727	25.1079	
